REM DIRINDEX 1\2,1\3,1\4,1\5
REM DIRNAME "folder01","folder02","folder03","folder04","folder05"
TITLE ""
FILE "P1Q_t_0429-0438.mp3" MP3
  TRACK 01 AUDIO
    TITLE "2:cjc173_2213"
    INDEX 01 00:00:00
  TRACK 02 AUDIO
    TITLE "0:"
    INDEX 01 00:01:12
  TRACK 03 AUDIO
    TITLE "3:cjc173_2214"
    INDEX 01 00:01:57
  TRACK 04 AUDIO
    TITLE "0:"
    INDEX 01 00:03:13
  TRACK 05 AUDIO
    TITLE "4:cjc173_2215"
    INDEX 01 00:03:36
  TRACK 06 AUDIO
    TITLE "0:"
    INDEX 01 00:05:60
  TRACK 07 AUDIO
    TITLE "5:cjc173_2216"
    INDEX 01 00:06:07
  TRACK 08 AUDIO
    TITLE "0:"
    INDEX 01 00:11:36
  TRACK 09 AUDIO
    TITLE "3:cjc173_2217"
    INDEX 01 00:12:08
  TRACK 10 AUDIO
    TITLE "0:"
    INDEX 01 00:13:40
  TRACK 11 AUDIO
    TITLE "4:cjc173_2218"
    INDEX 01 00:13:62
  TRACK 12 AUDIO
    TITLE "0:"
    INDEX 01 00:17:48
  TRACK 13 AUDIO
    TITLE "5:cjc173_2219"
    INDEX 01 00:17:70
  TRACK 14 AUDIO
    TITLE "0:"
    INDEX 01 00:22:00
  TRACK 15 AUDIO
    TITLE "3:cjc173_2220"
    INDEX 01 00:22:47
  TRACK 16 AUDIO
    TITLE "0:"
    INDEX 01 00:23:56
  TRACK 17 AUDIO
    TITLE "4:cjc173_2221"
    INDEX 01 00:24:03
  TRACK 18 AUDIO
    TITLE "0:"
    INDEX 01 00:27:23
  TRACK 19 AUDIO
    TITLE "5:cjc173_2222"
    INDEX 01 00:27:44
  TRACK 20 AUDIO
    TITLE "0:"
    INDEX 01 00:31:15
  TRACK 21 AUDIO
    TITLE "3:cjc173_2223"
    INDEX 01 00:31:62
  TRACK 22 AUDIO
    TITLE "0:"
    INDEX 01 00:33:08
  TRACK 23 AUDIO
    TITLE "4:cjc173_2224"
    INDEX 01 00:33:29
  TRACK 24 AUDIO
    TITLE "0:"
    INDEX 01 00:34:64
  TRACK 25 AUDIO
    TITLE "5:cjc173_2225"
    INDEX 01 00:35:11
  TRACK 26 AUDIO
    TITLE "0:"
    INDEX 01 00:39:48
  TRACK 27 AUDIO
    TITLE "3:cjc173_2226"
    INDEX 01 00:40:20
  TRACK 28 AUDIO
    TITLE "0:"
    INDEX 01 00:41:21
  TRACK 29 AUDIO
    TITLE "4:cjc173_2227"
    INDEX 01 00:41:46
  TRACK 30 AUDIO
    TITLE "0:"
    INDEX 01 00:44:49
  TRACK 31 AUDIO
    TITLE "5:cjc173_2228"
    INDEX 01 00:44:68
  TRACK 32 AUDIO
    TITLE "0:"
    INDEX 01 00:49:01
  TRACK 33 AUDIO
    TITLE "3:cjc173_2229"
    INDEX 01 00:49:48
  TRACK 34 AUDIO
    TITLE "0:"
    INDEX 01 00:51:23
  TRACK 35 AUDIO
    TITLE "4:cjc173_2230"
    INDEX 01 00:51:45
  TRACK 36 AUDIO
    TITLE "0:"
    INDEX 01 00:53:10
  TRACK 37 AUDIO
    TITLE "5:cjc173_2231"
    INDEX 01 00:53:30
  TRACK 38 AUDIO
    TITLE "0:"
    INDEX 01 00:58:45
  TRACK 39 AUDIO
    TITLE "3:cjc173_2232"
    INDEX 01 00:59:23
  TRACK 40 AUDIO
    TITLE "0:"
    INDEX 01 01:00:54
  TRACK 41 AUDIO
    TITLE "4:cjc173_2233"
    INDEX 01 01:01:00
  TRACK 42 AUDIO
    TITLE "0:"
    INDEX 01 01:05:27
  TRACK 43 AUDIO
    TITLE "5:cjc173_2234"
    INDEX 01 01:05:47
  TRACK 44 AUDIO
    TITLE "0:"
    INDEX 01 01:11:34
  TRACK 45 AUDIO
    TITLE "3:cjc173_2235"
    INDEX 01 01:12:04
  TRACK 46 AUDIO
    TITLE "0:"
    INDEX 01 01:13:43
  TRACK 47 AUDIO
    TITLE "4:cjc173_2236"
    INDEX 01 01:13:64
  TRACK 48 AUDIO
    TITLE "0:"
    INDEX 01 01:16:08
  TRACK 49 AUDIO
    TITLE "5:cjc173_2237"
    INDEX 01 01:16:29
  TRACK 50 AUDIO
    TITLE "0:"
    INDEX 01 01:20:31
  TRACK 51 AUDIO
    TITLE "3:cjc173_2238"
    INDEX 01 01:21:01
  TRACK 52 AUDIO
    TITLE "0:"
    INDEX 01 01:22:30
  TRACK 53 AUDIO
    TITLE "4:cjc173_2239"
    INDEX 01 01:22:51
  TRACK 54 AUDIO
    TITLE "0:"
    INDEX 01 01:25:03
  TRACK 55 AUDIO
    TITLE "5:cjc173_2240"
    INDEX 01 01:25:22
  TRACK 56 AUDIO
    TITLE "0:"
    INDEX 01 01:30:41
  TRACK 57 AUDIO
    TITLE "3:cjc173_2241"
    INDEX 01 01:31:13
  TRACK 58 AUDIO
    TITLE "0:"
    INDEX 01 01:32:38
  TRACK 59 AUDIO
    TITLE "4:cjc173_2242"
    INDEX 01 01:32:60
  TRACK 60 AUDIO
    TITLE "0:"
    INDEX 01 01:35:27
  TRACK 61 AUDIO
    TITLE "5:cjc173_2243"
    INDEX 01 01:35:48
  TRACK 62 AUDIO
    TITLE "0:"
    INDEX 01 01:40:55
